<svg width="48" height="48" viewBox="0 0 48 48" fill="none" xmlns="http://www.w3.org/2000/svg">
<circle cx="24" cy="24" r="23.5" fill="white" stroke="#DBDBDB"/>
<path d="M24.4918 12C18.1303 12 13 16.4401 13 21.8305C13 25.3293 15.1342 28.3931 18.3355 30.1425L17.252 34.5205C17.2315 34.5862 17.2284 34.6566 17.2429 34.724C17.2574 34.7914 17.2889 34.8532 17.334 34.9023C17.3998 34.9651 17.4844 34.9998 17.5721 35C17.6448 34.9937 17.7138 34.9626 17.7691 34.9112L22.4315 31.5101C23.1197 31.6129 23.8135 31.6662 24.5082 31.6699C30.8615 31.6699 36 27.2297 36 21.8305C36 16.4312 30.8451 12 24.4918 12Z" fill="#392020"/>
<path d="M17.0218 20.2762H15.7659C15.6103 20.2811 15.4565 20.238 15.3227 20.1519C15.2632 20.1116 15.2121 20.0584 15.1726 19.9958C15.133 19.9331 15.1059 19.8623 15.0928 19.7877C15.0888 19.7405 15.0888 19.693 15.0928 19.6457C15.0889 19.5573 15.1048 19.4691 15.1391 19.3887C15.1734 19.3083 15.2251 19.2381 15.2898 19.1839C15.4329 19.0718 15.6057 19.0126 15.7823 19.0152H19.5664C19.7233 19.0092 19.8781 19.0557 20.0097 19.1484C20.0705 19.1869 20.1227 19.2396 20.1624 19.3025C20.2021 19.3655 20.2285 19.4372 20.2395 19.5125C20.2435 19.5568 20.2435 19.6014 20.2395 19.6457C20.2434 19.7354 20.2275 19.8248 20.1933 19.9067C20.159 19.9885 20.1074 20.0603 20.0425 20.1163C19.9029 20.2283 19.7318 20.2848 19.5582 20.2762H18.3434V24.9472C18.3483 25.0468 18.3341 25.1462 18.3016 25.2395C18.2691 25.3327 18.219 25.4177 18.1546 25.4889C18.0928 25.557 18.0185 25.6104 17.9365 25.6456C17.8545 25.6807 17.7666 25.6969 17.6785 25.6932C17.5243 25.6979 17.3734 25.6446 17.2516 25.5423C17.1357 25.4423 17.057 25.3003 17.03 25.1426C17.0219 25.0778 17.0219 25.0121 17.03 24.9472L17.0218 20.2762Z" fill="#FEE500"/>
<path d="M20.6008 19.362C20.6369 19.2159 20.7217 19.0894 20.8389 19.0068C20.9637 18.9302 21.1059 18.8933 21.2493 18.9002H21.5612C21.7133 18.8943 21.8639 18.9343 21.9963 19.0157C22.1365 19.1177 22.2361 19.273 22.2754 19.4508L23.917 24.4682C23.9596 24.5991 23.9952 24.7326 24.0238 24.8679C24.0266 24.9241 24.0266 24.9804 24.0238 25.0366C24.0265 25.1231 24.0118 25.2093 23.9806 25.289C23.9494 25.3688 23.9025 25.4402 23.8432 25.4983C23.7857 25.5621 23.7166 25.6124 23.6404 25.646C23.5641 25.6796 23.4822 25.6958 23.3999 25.6937C23.2733 25.7073 23.1461 25.6745 23.0389 25.6004C22.9317 25.5262 22.8507 25.4152 22.8089 25.2852L22.4641 24.193H20.3053L19.9606 25.2852C19.9198 25.4178 19.8378 25.531 19.7285 25.6054C19.6192 25.6799 19.4895 25.7111 19.3613 25.6937C19.2225 25.6976 19.0866 25.6507 18.9755 25.5605C18.8674 25.4674 18.7944 25.3348 18.7703 25.1876C18.766 25.1373 18.766 25.0868 18.7703 25.0366C18.7562 24.9484 18.7562 24.8584 18.7703 24.7702C18.7703 24.6725 18.8278 24.5659 18.8606 24.4682L20.6008 19.362ZM21.4217 20.5254L20.6419 23.1895H22.1933L21.4217 20.5254Z" fill="#FEE500"/>
<path d="M24.2136 19.6462C24.2053 19.4469 24.2702 19.2521 24.3942 19.1045C24.4572 19.0357 24.5329 18.9819 24.6163 18.9468C24.6997 18.9116 24.789 18.8957 24.8785 18.9002C25.0322 18.8982 25.1823 18.9513 25.3053 19.0512C25.4193 19.1553 25.495 19.3002 25.5187 19.4596C25.5268 19.5215 25.5268 19.5843 25.5187 19.6462V24.3172H27.776C27.9325 24.315 28.0863 24.3611 28.2193 24.4503C28.2791 24.4902 28.3304 24.5432 28.37 24.606C28.4096 24.6687 28.4365 24.7397 28.4491 24.8144C28.4491 24.8144 28.4491 24.9032 28.4491 24.9476C28.453 25.0361 28.4372 25.1242 28.4029 25.2046C28.3686 25.2849 28.3169 25.3553 28.2521 25.4094C28.109 25.5216 27.9363 25.5807 27.7596 25.5781H24.9852C24.8085 25.5904 24.6328 25.5407 24.4845 25.4361C24.3518 25.3287 24.2633 25.1693 24.2382 24.9921C24.2322 24.8945 24.2322 24.7966 24.2382 24.699L24.2136 19.6462Z" fill="#FEE500"/>
<path d="M28.5963 19.6465C28.5914 19.4478 28.6559 19.2544 28.7769 19.1048C28.8999 18.9839 29.0578 18.9125 29.2237 18.9028C29.3897 18.8931 29.5537 18.9456 29.6881 19.0515C29.8046 19.1548 29.8832 19.2996 29.9097 19.46C29.9137 19.522 29.9137 19.5844 29.9097 19.6465V21.8221L31.9864 19.2291C32.0664 19.1406 32.1514 19.0576 32.2409 18.9805C32.3252 18.9262 32.4218 18.8984 32.52 18.9005C32.6634 18.8997 32.8037 18.9461 32.9222 19.0337C32.978 19.0744 33.0256 19.1268 33.0623 19.1879C33.099 19.2489 33.1239 19.3173 33.1356 19.389C33.1389 19.4065 33.1389 19.4247 33.1356 19.4423C33.1316 19.4628 33.1316 19.4839 33.1356 19.5044C33.1353 19.5978 33.1127 19.6897 33.0699 19.7709C33.0264 19.8568 32.974 19.9371 32.914 20.0105L31.5514 21.6268L33.193 24.3796V24.4684C33.2783 24.5957 33.3447 24.7365 33.39 24.8859V24.9302C33.3995 25.0331 33.3858 25.137 33.3501 25.2329C33.3143 25.3287 33.2576 25.4138 33.1848 25.4808C33.0479 25.5927 32.8804 25.6522 32.7087 25.6495C32.5947 25.6546 32.4814 25.627 32.3804 25.5695C32.2711 25.4902 32.181 25.3837 32.1177 25.2588L30.591 22.5947L29.8604 23.4206V24.9035C29.8654 25.1022 29.8009 25.2956 29.6799 25.4452C29.615 25.5138 29.5378 25.5674 29.4531 25.6025C29.3684 25.6376 29.278 25.6537 29.1874 25.6495C29.0359 25.653 28.888 25.5996 28.7687 25.4985C28.6528 25.3986 28.5741 25.2567 28.5471 25.099C28.539 25.0342 28.539 24.9684 28.5471 24.9035L28.5963 19.6465Z" fill="#FEE500"/>
</svg>
